<svg xmlns="http://www.w3.org/2000/svg" xmlns:xlink="http://www.w3.org/1999/xlink" width="68" height="68" viewBox="0 0 68 68"><defs><path id="i9ina" d="M686 2705c0 18.75-15.25 34-34 34s-34-15.25-34-34 15.25-34 34-34a1.38 1.38 0 0 1 0 2.77 31.27 31.27 0 0 0-31.23 31.23 31.27 31.27 0 0 0 31.23 31.23 31.27 31.27 0 0 0 27.78-45.52 31.53 31.53 0 0 0-9.23-10.84 1.38 1.38 0 1 1 1.65-2.23 34.3 34.3 0 0 1 10.04 11.8A34.1 34.1 0 0 1 686 2705zm-41.3-15.77l24.49 14.58a1.38 1.38 0 0 1 .04 2.35l-16.94 10.92a1.38 1.38 0 1 1-1.5-2.33l15.07-9.7-20.5-12.2v27.93a1.38 1.38 0 1 1-2.76 0v-30.36a1.38 1.38 0 0 1 2.1-1.2z"/></defs><g><g transform="translate(-618 -2671)"><use xlink:href="#i9ina"/><use fill="#92deff" xlink:href="#i9ina"/></g></g></svg>